<svg aria-hidden="true" style="position: absolute; width: 0; height: 0; overflow: hidden;" version="1.1" xmlns="http://www.w3.org/2000/svg" xmlns:xlink="http://www.w3.org/1999/xlink">
<defs>
<symbol id="icon-comment" viewBox="0 0 26 32">
<title>comment</title>
<path d="M0.747 12.587c0 6.64 5.387 12.053 12.053 12.053 1.333 0 2.693-0.24 3.973-0.693l6.32 1.12c0.053 0 0.080 0 0.133 0 0.24 0 0.453-0.107 0.613-0.293 0.187-0.213 0.213-0.533 0.107-0.8l-1.707-3.947c0.72-0.933 1.307-1.947 1.733-3.040 0.56-1.413 0.827-2.88 0.827-4.4 0-6.667-5.387-12.080-12.053-12.080s-12 5.44-12 12.080z"></path>
</symbol>
<symbol id="icon-heart" viewBox="0 0 26 32">
<title>heart</title>
<path d="M18.683 3.866c-2.567 0-4.787 1.479-5.856 3.632-1.071-2.152-3.289-3.632-5.857-3.632-3.609 0-6.537 2.926-6.537 6.537 0 8.625 12.258 13.346 12.258 13.346s12.529-4.781 12.529-13.346c0-3.611-2.927-6.537-6.537-6.537v0z"></path>
</symbol>
<symbol id="icon-search" viewBox="0 0 26 32">
<title>search</title>
<path d="M24.32 22.657l-7.198-7.194c0.95-1.242 1.582-2.752 1.76-4.42 0.517-4.846-2.993-9.194-7.84-9.711s-9.194 2.993-9.711 7.839c-0.517 4.847 2.993 9.194 7.84 9.712 2.336 0.249 4.556-0.44 6.287-1.761l7.202 7.197 1.661-1.662zM9.419 16.546c-3.556-0.379-6.131-3.569-5.752-7.125s3.569-6.132 7.125-5.753 6.131 3.569 5.752 7.125c-0.379 3.556-3.569 6.131-7.125 5.753z"></path>
</symbol>
<symbol id="icon-bin" viewBox="0 0 26 32">
<title>bin</title>
<path d="M10.946 13.52c0 0.398-0.215 0.72-0.48 0.72s-0.48-0.322-0.48-0.72c0-0.398 0.215-0.72 0.48-0.72s0.48 0.322 0.48 0.72z"></path>
<path d="M15.746 13.52c0 0.398-0.215 0.72-0.48 0.72s-0.48-0.322-0.48-0.72c0-0.398 0.215-0.72 0.48-0.72s0.48 0.322 0.48 0.72z"></path>
<path d="M13.826 15.68c0 0.53-0.43 0.96-0.96 0.96s-0.96-0.43-0.96-0.96c0-0.53 0.43-0.96 0.96-0.96s0.96 0.43 0.96 0.96z"></path>
<path d="M20.066 4.88h-4.584c-0.112-0.548-0.596-0.96-1.176-0.96h-2.88c-0.58 0-1.064 0.412-1.176 0.96h-4.584c-0.397 0-0.72 0.323-0.72 0.72 0 0.317 0.208 0.584 0.494 0.68l0.947 13.258c0.045 0.63 0.605 1.183 1.199 1.183 0 0 0 0 0 0 0.001 0 0.002-0 0.003-0h10.555c0.001 0 0.002 0 0.002 0s0 0 0 0c0.594-0 1.154-0.554 1.199-1.183v-0l0.947-13.257c0.286-0.095 0.494-0.362 0.494-0.68-0-0.397-0.323-0.72-0.72-0.72zM11.426 4.4h2.88c0.313 0 0.577 0.201 0.676 0.48h-4.232c0.099-0.279 0.363-0.48 0.676-0.48zM18.866 19.503v0c0 0 0 0 0 0-0.027 0.377-0.376 0.735-0.719 0.736-0 0-0.001 0-0.002 0h-10.56c-0 0-0.001 0-0.001 0-0.343-0.001-0.692-0.359-0.719-0.736 0 0 0 0 0-0v0l-0.942-13.183h13.884l-0.941 13.183zM20.066 5.84h-14.4c-0.132 0-0.24-0.108-0.24-0.24s0.108-0.24 0.24-0.24h14.4c0.132 0 0.24 0.108 0.24 0.24s-0.108 0.24-0.24 0.24z"></path>
</symbol>
</defs>
</svg>
